<svg width="81" height="22" viewBox="0 0 81 22" fill="none" xmlns="http://www.w3.org/2000/svg">
<g clip-path="url(#clip0_2826_33376)">
<path d="M0.199219 15.2228L3.60722 8.35085L0.199219 2.80298V15.2228Z" fill="#EC8F26"/>
<path d="M1.74622 22L10.1992 14.0811L4.79521 16.4532L1.74622 22Z" fill="#EBA12A"/>
<path d="M8.40026 0L0.270264 16.0213L5.56126 13.2896L10.1373 7.65213L8.40026 0Z" fill="#EBA12A"/>
<path d="M5.56126 13.2896L0.270264 16.0212L4.79526 16.4531L10.1993 14.0809L5.56126 13.2896Z" fill="#EC8F26"/>
</g>
<path d="M15.3526 4.82H17.9126V13.508C17.9126 13.86 17.9766 14.1107 18.1046 14.26C18.2326 14.4093 18.414 14.484 18.6486 14.484C18.8086 14.484 18.9686 14.4627 19.1286 14.42C19.2993 14.3667 19.4486 14.308 19.5766 14.244L19.9126 16.164C19.5926 16.3133 19.2246 16.4307 18.8086 16.516C18.3926 16.6013 18.0033 16.644 17.6406 16.644C16.9153 16.644 16.35 16.452 15.9446 16.068C15.55 15.6733 15.3526 15.1187 15.3526 14.404V4.82ZM24.744 16.66C24.0293 16.66 23.3893 16.5427 22.824 16.308C22.2693 16.0733 21.8 15.7533 21.416 15.348C21.032 14.9427 20.7387 14.4787 20.536 13.956C20.344 13.4333 20.248 12.884 20.248 12.308C20.248 11.7213 20.344 11.1667 20.536 10.644C20.7387 10.1213 21.032 9.65733 21.416 9.252C21.8 8.84667 22.2693 8.52667 22.824 8.292C23.3893 8.05734 24.0293 7.94 24.744 7.94C25.4587 7.94 26.0933 8.05734 26.648 8.292C27.2027 8.52667 27.672 8.84667 28.056 9.252C28.44 9.65733 28.7333 10.1213 28.936 10.644C29.1387 11.1667 29.24 11.7213 29.24 12.308C29.24 12.884 29.1387 13.4333 28.936 13.956C28.7333 14.4787 28.44 14.9427 28.056 15.348C27.672 15.7533 27.2027 16.0733 26.648 16.308C26.0933 16.5427 25.4587 16.66 24.744 16.66ZM22.872 12.308C22.872 12.7453 22.952 13.1293 23.112 13.46C23.2827 13.7907 23.5067 14.0467 23.784 14.228C24.0613 14.4093 24.3813 14.5 24.744 14.5C25.096 14.5 25.4107 14.4093 25.688 14.228C25.976 14.036 26.2 13.7747 26.36 13.444C26.52 13.1133 26.6 12.7347 26.6 12.308C26.6 11.8707 26.52 11.4867 26.36 11.156C26.2 10.8253 25.976 10.5693 25.688 10.388C25.4107 10.2067 25.096 10.116 24.744 10.116C24.3813 10.116 24.0613 10.2067 23.784 10.388C23.5067 10.5693 23.2827 10.8253 23.112 11.156C22.952 11.4867 22.872 11.8707 22.872 12.308ZM35.5496 16.66C34.9096 16.66 34.3496 16.5267 33.8696 16.26C33.3896 15.9827 33.011 15.5987 32.7336 15.108V16.5H30.5096V4.82H33.0696V9.476C33.347 8.98533 33.715 8.60667 34.1736 8.34C34.643 8.07333 35.1923 7.94 35.8216 7.94C36.355 7.94 36.8403 8.05734 37.2776 8.292C37.7256 8.516 38.1096 8.83067 38.4296 9.236C38.7603 9.63067 39.0163 10.0947 39.1976 10.628C39.379 11.1507 39.4696 11.7213 39.4696 12.34C39.4696 12.948 39.3683 13.5133 39.1656 14.036C38.9736 14.5587 38.7016 15.0173 38.3496 15.412C37.9976 15.8067 37.5816 16.116 37.1016 16.34C36.6323 16.5533 36.115 16.66 35.5496 16.66ZM34.8296 14.5C35.1176 14.5 35.3843 14.4467 35.6296 14.34C35.8856 14.2227 36.1043 14.068 36.2856 13.876C36.467 13.684 36.6056 13.46 36.7016 13.204C36.7976 12.9373 36.8456 12.6493 36.8456 12.34C36.8456 11.9453 36.7656 11.5773 36.6056 11.236C36.4456 10.8947 36.2216 10.6227 35.9336 10.42C35.6563 10.2173 35.331 10.116 34.9576 10.116C34.691 10.116 34.435 10.18 34.1896 10.308C33.9443 10.436 33.7256 10.612 33.5336 10.836C33.3416 11.0493 33.187 11.2947 33.0696 11.572V13.332C33.155 13.5133 33.2616 13.6787 33.3896 13.828C33.5176 13.9667 33.6563 14.084 33.8056 14.18C33.9656 14.276 34.131 14.356 34.3016 14.42C34.483 14.4733 34.659 14.5 34.8296 14.5ZM44.76 16.66C44.0453 16.66 43.4107 16.548 42.856 16.324C42.3013 16.0893 41.8267 15.7747 41.432 15.38C41.048 14.9853 40.7547 14.532 40.552 14.02C40.3493 13.4973 40.248 12.9533 40.248 12.388C40.248 11.5773 40.424 10.8413 40.776 10.18C41.1387 9.508 41.656 8.96933 42.328 8.564C43 8.148 43.8107 7.94 44.76 7.94C45.7093 7.94 46.5147 8.14267 47.176 8.548C47.848 8.95333 48.36 9.48667 48.712 10.148C49.064 10.7987 49.24 11.508 49.24 12.276C49.24 12.4253 49.2293 12.5747 49.208 12.724C49.1973 12.8627 49.1867 12.9853 49.176 13.092H42.968C43 13.4653 43.1013 13.78 43.272 14.036C43.4533 14.292 43.6827 14.4893 43.96 14.628C44.2373 14.756 44.5307 14.82 44.84 14.82C45.224 14.82 45.5813 14.7293 45.912 14.548C46.2533 14.3667 46.488 14.1213 46.616 13.812L48.792 14.42C48.5787 14.8573 48.2747 15.2467 47.88 15.588C47.496 15.9187 47.0373 16.18 46.504 16.372C45.9813 16.564 45.4 16.66 44.76 16.66ZM42.904 11.524H46.552C46.5093 11.172 46.408 10.868 46.248 10.612C46.088 10.3453 45.8747 10.1427 45.608 10.004C45.3413 9.85467 45.048 9.78 44.728 9.78C44.3973 9.78 44.0987 9.85467 43.832 10.004C43.576 10.1427 43.368 10.3453 43.208 10.612C43.048 10.868 42.9467 11.172 42.904 11.524Z" fill="#EBA12A"/>
<path d="M57.931 16.9422C56.281 16.9422 55.021 16.2722 55.021 15.1622V14.7222C55.021 13.6122 56.281 12.9422 57.931 12.9422C59.581 12.9422 60.841 13.6122 60.841 14.7222V15.1622C60.841 16.2722 59.581 16.9422 57.931 16.9422ZM59.551 12.8922V10.7222H58.061V9.65217H59.551V7.36217H60.811V12.8922H59.551ZM57.931 13.9722C57.061 13.9722 56.261 14.3522 56.261 14.8222V15.0622C56.261 15.5322 57.061 15.9122 57.931 15.9122C58.801 15.9122 59.601 15.5322 59.601 15.0622V14.8222C59.601 14.3522 58.801 13.9722 57.931 13.9722ZM53.531 8.99217V7.92217H58.331V8.99217H56.601V9.60217C56.601 10.0922 56.721 10.3722 57.251 10.7822C57.671 11.1022 58.171 11.4422 58.671 11.7622L58.001 12.6522C57.561 12.3622 57.141 12.0722 56.771 11.8022C56.351 11.4922 56.081 11.2722 56.041 11.1722H56.031C55.991 11.2922 55.711 11.5622 55.251 11.9222C54.821 12.2622 54.381 12.6022 53.881 12.9522L53.141 12.0322C53.771 11.6022 54.371 11.1422 54.791 10.7722C55.141 10.4622 55.341 10.0922 55.341 9.60217V8.99217H53.531ZM67.0756 16.9422C65.4256 16.9422 64.1656 16.2722 64.1656 15.1522V14.7122C64.1656 13.5922 65.4256 12.9222 67.0756 12.9222C68.7256 12.9222 69.9856 13.5922 69.9856 14.7122V15.1522C69.9856 16.2722 68.7256 16.9422 67.0756 16.9422ZM65.0756 10.8922H65.0656C65.0056 11.0522 64.8556 11.2222 64.4456 11.5822C63.9856 11.9822 63.4856 12.3922 62.9256 12.8122L62.1756 11.8822C62.7556 11.4522 63.2156 11.0922 63.6956 10.6522C64.1056 10.2822 64.3756 9.79217 64.3756 9.14217V7.74217H65.6556V9.10217C65.6556 9.76217 65.7756 10.1122 66.3156 10.5522C66.7056 10.8722 67.2556 11.2722 67.7556 11.6122L67.0556 12.4922C66.5956 12.1722 66.1556 11.8522 65.7856 11.5622C65.4456 11.2922 65.1256 11.0522 65.0756 10.8922ZM68.6956 12.8722V10.3122H67.0556V9.24217H68.6956V7.36217H69.9556V12.8722H68.6956ZM67.0756 13.9522C66.2056 13.9522 65.4056 14.3422 65.4056 14.8022V15.0622C65.4056 15.5222 66.2056 15.9122 67.0756 15.9122C67.9456 15.9122 68.7456 15.5222 68.7456 15.0622V14.8022C68.7456 14.3422 67.9456 13.9522 67.0756 13.9522ZM77.8603 12.5722H79.1103V16.6722H73.1903V12.5722H74.4403V13.6222H77.8603V12.5722ZM74.4403 15.6322H77.8603V14.6622H74.4403V15.6322ZM76.6003 8.41217H77.8603V7.36217H79.1103V12.1522H77.8603V11.2822H76.6003V10.2322H77.8603V9.46217H76.6003V8.41217ZM73.9203 12.0222C72.3603 12.0222 71.5503 11.0422 71.5503 9.98217V9.70217C71.5503 8.64217 72.3603 7.66217 73.9203 7.66217C75.4803 7.66217 76.2903 8.64217 76.2903 9.70217V9.98217C76.2903 11.0422 75.4803 12.0222 73.9203 12.0222ZM73.9203 8.73217C73.1203 8.73217 72.7503 9.24217 72.7503 9.73217V9.95217C72.7503 10.4422 73.1203 10.9522 73.9203 10.9522C74.7203 10.9522 75.0903 10.4422 75.0903 9.95217V9.73217C75.0903 9.24217 74.7203 8.73217 73.9203 8.73217Z" fill="#EBA12A" fill-opacity="0.4"/>
<defs>
<clipPath id="clip0_2826_33376">
<rect width="10" height="22" fill="white" transform="translate(0.199219)"/>
</clipPath>
</defs>
</svg>
