<svg width="115" height="22" viewBox="0 0 115 22" fill="none" xmlns="http://www.w3.org/2000/svg">
<g clip-path="url(#clip0_2826_33326)">
<path d="M0.699219 15.2228L4.10722 8.35085L0.699219 2.80298V15.2228Z" fill="#EC8F26"/>
<path d="M2.24622 22L10.6992 14.0811L5.29521 16.4532L2.24622 22Z" fill="#EBA12A"/>
<path d="M8.90026 0L0.770264 16.0213L6.06126 13.2896L10.6373 7.65213L8.90026 0Z" fill="#EBA12A"/>
<path d="M6.06126 13.2896L0.770264 16.0212L5.29526 16.4531L10.6993 14.0809L6.06126 13.2896Z" fill="#EC8F26"/>
</g>
<path d="M21.1966 16.66C20.5673 16.66 20.018 16.5267 19.5486 16.26C19.0793 15.9827 18.7113 15.6093 18.4446 15.14V19.908H15.8846V8.1H18.1086V9.46C18.418 8.98 18.8073 8.60667 19.2766 8.34C19.746 8.07333 20.2953 7.94 20.9246 7.94C21.49 7.94 22.0073 8.052 22.4766 8.276C22.9566 8.5 23.3726 8.80933 23.7246 9.204C24.0766 9.59867 24.3486 10.0573 24.5406 10.58C24.7326 11.1027 24.8286 11.668 24.8286 12.276C24.8286 13.108 24.674 13.8547 24.3646 14.516C24.0553 15.1773 23.6233 15.7 23.0686 16.084C22.5246 16.468 21.9006 16.66 21.1966 16.66ZM20.3326 14.5C20.61 14.5 20.8606 14.4413 21.0846 14.324C21.3193 14.196 21.522 14.0307 21.6926 13.828C21.8633 13.6253 21.9913 13.3907 22.0766 13.124C22.1726 12.8467 22.2206 12.5587 22.2206 12.26C22.2206 11.9507 22.1673 11.668 22.0606 11.412C21.9646 11.156 21.826 10.932 21.6446 10.74C21.4633 10.5373 21.25 10.3827 21.0046 10.276C20.7593 10.1693 20.4926 10.116 20.2046 10.116C20.034 10.116 19.858 10.1427 19.6766 10.196C19.506 10.2493 19.3406 10.3293 19.1806 10.436C19.0313 10.532 18.8926 10.6493 18.7646 10.788C18.6366 10.9267 18.53 11.0867 18.4446 11.268V12.996C18.562 13.284 18.7166 13.54 18.9086 13.764C19.1006 13.988 19.3193 14.1693 19.5646 14.308C19.81 14.436 20.066 14.5 20.3326 14.5ZM26.087 4.82H28.647V13.508C28.647 13.86 28.711 14.1107 28.839 14.26C28.967 14.4093 29.1483 14.484 29.383 14.484C29.543 14.484 29.703 14.4627 29.863 14.42C30.0337 14.3667 30.183 14.308 30.311 14.244L30.647 16.164C30.327 16.3133 29.959 16.4307 29.543 16.516C29.127 16.6013 28.7377 16.644 28.375 16.644C27.6497 16.644 27.0843 16.452 26.679 16.068C26.2843 15.6733 26.087 15.1187 26.087 14.404V4.82ZM30.9504 13.988C30.9504 13.4333 31.1051 12.948 31.4144 12.532C31.7237 12.116 32.1504 11.7907 32.6944 11.556C33.2384 11.3107 33.8624 11.188 34.5664 11.188C34.9077 11.188 35.2437 11.22 35.5744 11.284C35.9051 11.3373 36.1931 11.4173 36.4384 11.524V11.156C36.4384 10.6973 36.2997 10.3453 36.0224 10.1C35.7451 9.85467 35.3237 9.732 34.7584 9.732C34.2891 9.732 33.8464 9.812 33.4304 9.972C33.0251 10.132 32.5931 10.3613 32.1344 10.66L31.3664 9.028C31.9211 8.66533 32.4971 8.39333 33.0944 8.212C33.7024 8.03067 34.3424 7.94 35.0144 7.94C36.2731 7.94 37.2491 8.244 37.9424 8.852C38.6464 9.44933 38.9984 10.3187 38.9984 11.46V13.652C38.9984 13.908 39.0357 14.0893 39.1104 14.196C39.1957 14.292 39.3397 14.3507 39.5424 14.372V16.5C39.329 16.5427 39.1264 16.5747 38.9344 16.596C38.753 16.6173 38.593 16.628 38.4544 16.628C37.9744 16.628 37.6064 16.532 37.3504 16.34C37.1051 16.148 36.9504 15.8867 36.8864 15.556L36.8384 15.188C36.4651 15.668 36.0171 16.036 35.4944 16.292C34.9824 16.5373 34.4437 16.66 33.8784 16.66C33.3237 16.66 32.8224 16.5427 32.3744 16.308C31.9371 16.0733 31.5904 15.7533 31.3344 15.348C31.0784 14.9427 30.9504 14.4893 30.9504 13.988ZM36.0384 14.308C36.1557 14.212 36.2517 14.1053 36.3264 13.988C36.4011 13.8707 36.4384 13.7587 36.4384 13.652V12.9C36.2251 12.8147 35.9851 12.7507 35.7184 12.708C35.4624 12.6547 35.2224 12.628 34.9984 12.628C34.5291 12.628 34.1397 12.7347 33.8304 12.948C33.5211 13.1507 33.3664 13.4227 33.3664 13.764C33.3664 13.956 33.4197 14.132 33.5264 14.292C33.6331 14.452 33.7771 14.58 33.9584 14.676C34.1504 14.772 34.3744 14.82 34.6304 14.82C34.8864 14.82 35.1424 14.772 35.3984 14.676C35.6544 14.58 35.8677 14.4573 36.0384 14.308ZM46.2153 16.052C45.9806 16.148 45.7193 16.244 45.4313 16.34C45.1539 16.436 44.8606 16.5107 44.5513 16.564C44.2419 16.628 43.9379 16.66 43.6393 16.66C43.2126 16.66 42.8179 16.5907 42.4553 16.452C42.1033 16.3027 41.8206 16.0627 41.6073 15.732C41.4046 15.4013 41.3033 14.964 41.3033 14.42V10.036H40.2313V8.1H41.3033V5.428H43.8633V8.1H45.5753V10.036H43.8633V13.54C43.8633 13.8173 43.9326 14.02 44.0713 14.148C44.2099 14.2653 44.3859 14.324 44.5993 14.324C44.7806 14.324 44.9726 14.292 45.1753 14.228C45.3886 14.164 45.5699 14.0947 45.7193 14.02L46.2153 16.052ZM47.2143 17.764C47.4276 17.828 47.6249 17.876 47.8063 17.908C47.9983 17.9507 48.1689 17.972 48.3183 17.972C48.5209 17.972 48.6916 17.924 48.8303 17.828C48.9796 17.7427 49.1076 17.588 49.2143 17.364C49.3209 17.1507 49.4169 16.8627 49.5023 16.5L46.3023 8.1H48.9423L50.8943 13.876L52.5583 8.1H54.9743L51.7743 17.86C51.6249 18.3187 51.3956 18.724 51.0863 19.076C50.7769 19.428 50.4036 19.7 49.9663 19.892C49.5289 20.0947 49.0489 20.196 48.5263 20.196C48.3023 20.196 48.0836 20.1747 47.8703 20.132C47.6569 20.1 47.4383 20.0413 47.2143 19.956V17.764ZM61.2904 16.66C60.661 16.66 60.1117 16.5267 59.6424 16.26C59.173 15.9827 58.805 15.6093 58.5384 15.14V19.908H55.9784V8.1H58.2024V9.46C58.5117 8.98 58.901 8.60667 59.3704 8.34C59.8397 8.07333 60.389 7.94 61.0184 7.94C61.5837 7.94 62.101 8.052 62.5704 8.276C63.0504 8.5 63.4664 8.80933 63.8184 9.204C64.1704 9.59867 64.4424 10.0573 64.6344 10.58C64.8264 11.1027 64.9224 11.668 64.9224 12.276C64.9224 13.108 64.7677 13.8547 64.4584 14.516C64.149 15.1773 63.717 15.7 63.1624 16.084C62.6184 16.468 61.9944 16.66 61.2904 16.66ZM60.4264 14.5C60.7037 14.5 60.9544 14.4413 61.1784 14.324C61.413 14.196 61.6157 14.0307 61.7864 13.828C61.957 13.6253 62.085 13.3907 62.1704 13.124C62.2664 12.8467 62.3144 12.5587 62.3144 12.26C62.3144 11.9507 62.261 11.668 62.1544 11.412C62.0584 11.156 61.9197 10.932 61.7384 10.74C61.557 10.5373 61.3437 10.3827 61.0984 10.276C60.853 10.1693 60.5864 10.116 60.2984 10.116C60.1277 10.116 59.9517 10.1427 59.7704 10.196C59.5997 10.2493 59.4344 10.3293 59.2744 10.436C59.125 10.532 58.9864 10.6493 58.8584 10.788C58.7304 10.9267 58.6237 11.0867 58.5384 11.268V12.996C58.6557 13.284 58.8104 13.54 59.0024 13.764C59.1944 13.988 59.413 14.1693 59.6584 14.308C59.9037 14.436 60.1597 14.5 60.4264 14.5ZM66.1328 13.476V8.1H68.6928V12.916C68.6928 13.428 68.7941 13.8227 68.9968 14.1C69.1994 14.3667 69.4874 14.5 69.8608 14.5C70.0954 14.5 70.3194 14.4627 70.5328 14.388C70.7461 14.3027 70.9541 14.1693 71.1568 13.988C71.3594 13.8067 71.5408 13.572 71.7008 13.284V8.1H74.2608V13.652C74.2608 13.908 74.2981 14.0893 74.3728 14.196C74.4581 14.292 74.6021 14.3507 74.8048 14.372V16.5C74.5701 16.5427 74.3621 16.5747 74.1808 16.596C74.0101 16.6173 73.8554 16.628 73.7168 16.628C73.2688 16.628 72.9114 16.5373 72.6448 16.356C72.3781 16.164 72.2128 15.8973 72.1488 15.556L72.1008 15.044C71.7168 15.5987 71.2368 16.0093 70.6608 16.276C70.0954 16.532 69.4608 16.66 68.7568 16.66C67.9034 16.66 67.2528 16.388 66.8048 15.844C66.3568 15.3 66.1328 14.5107 66.1328 13.476ZM79.46 16.66C78.7453 16.66 78.0467 16.5427 77.364 16.308C76.6813 16.0733 76.1053 15.7267 75.636 15.268L76.516 13.652C77.028 14.0253 77.524 14.308 78.004 14.5C78.4947 14.692 78.9533 14.788 79.38 14.788C79.7107 14.788 79.9667 14.7347 80.148 14.628C80.3293 14.5213 80.42 14.356 80.42 14.132C80.42 13.972 80.3667 13.8493 80.26 13.764C80.1533 13.668 79.988 13.5827 79.764 13.508C79.5507 13.4333 79.284 13.3533 78.964 13.268C78.324 13.0547 77.7907 12.8467 77.364 12.644C76.9373 12.4413 76.6173 12.196 76.404 11.908C76.1907 11.6093 76.084 11.2253 76.084 10.756C76.084 10.1907 76.2227 9.7 76.5 9.284C76.788 8.85733 77.1933 8.52667 77.716 8.292C78.2387 8.05734 78.8627 7.94 79.588 7.94C80.164 7.94 80.724 8.03067 81.268 8.212C81.8227 8.39333 82.34 8.69733 82.82 9.124L81.828 10.724C81.348 10.3933 80.9213 10.1533 80.548 10.004C80.1747 9.85467 79.812 9.78 79.46 9.78C79.2787 9.78 79.1133 9.80133 78.964 9.844C78.8147 9.88667 78.692 9.96133 78.596 10.068C78.5107 10.164 78.468 10.292 78.468 10.452C78.468 10.612 78.5107 10.74 78.596 10.836C78.692 10.932 78.836 11.0173 79.028 11.092C79.2307 11.156 79.4813 11.236 79.78 11.332C80.4733 11.5347 81.0493 11.7427 81.508 11.956C81.9667 12.1587 82.308 12.4147 82.532 12.724C82.7667 13.0227 82.884 13.4227 82.884 13.924C82.884 14.7773 82.5747 15.4493 81.956 15.94C81.348 16.42 80.516 16.66 79.46 16.66Z" fill="#EBA12A"/>
<path d="M86.591 14.4222H90.221V12.9422C88.721 12.7522 87.661 11.8622 87.661 10.6222V10.1622C87.661 8.75217 89.031 7.80217 90.851 7.80217C92.671 7.80217 94.041 8.75217 94.041 10.1622V10.6222C94.041 11.8622 92.971 12.7522 91.481 12.9422V14.4222H95.111V15.4922H86.591V14.4222ZM90.851 8.89217C89.791 8.89217 88.901 9.42217 88.901 10.2322V10.5522C88.901 11.3622 89.791 11.8922 90.851 11.8922C91.911 11.8922 92.801 11.3622 92.801 10.5522V10.2322C92.801 9.42217 91.911 8.89217 90.851 8.89217ZM95.7356 11.6422H104.256V12.6822H95.7356V11.6422ZM99.9956 16.9422C98.3756 16.9422 96.9956 16.3922 96.9956 15.2222V14.9222C96.9956 13.7522 98.3756 13.2022 99.9956 13.2022C101.616 13.2022 102.996 13.7522 102.996 14.9222V15.2222C102.996 16.3922 101.616 16.9422 99.9956 16.9422ZM99.9956 14.2222C99.1056 14.2222 98.2456 14.5222 98.2456 15.0022V15.1422C98.2456 15.6222 99.1056 15.9222 99.9956 15.9222C100.886 15.9222 101.746 15.6222 101.746 15.1422V15.0022C101.746 14.5222 100.886 14.2222 99.9956 14.2222ZM100.016 9.67217H100.006C99.9156 9.83217 99.5956 10.0622 98.8356 10.4122C98.2356 10.6922 97.5956 10.9722 96.8356 11.2722L96.3556 10.2622C97.0356 10.0022 97.7956 9.67217 98.4356 9.36217C99.0456 9.06217 99.3556 8.76217 99.3556 8.14217V7.46217H100.636V8.14217C100.636 8.75217 100.936 9.06217 101.546 9.36217C102.186 9.67217 102.946 10.0022 103.626 10.2622L103.156 11.2522C102.396 10.9522 101.736 10.6622 101.156 10.3922C100.416 10.0522 100.096 9.83217 100.016 9.67217ZM112.61 7.36217V13.9822H111.35V7.36217H112.61ZM107.96 13.5222V15.4822H112.76V16.5622H106.69V13.5222H107.96ZM109.84 7.81217V12.6222H105.39V7.81217H106.63V9.27217H108.6V7.81217H109.84ZM106.63 10.3322V11.5622H108.6V10.3322H106.63Z" fill="#EBA12A" fill-opacity="0.4"/>
<defs>
<clipPath id="clip0_2826_33326">
<rect width="10" height="22" fill="white" transform="translate(0.699219)"/>
</clipPath>
</defs>
</svg>
