<svg width="113" height="22" viewBox="0 0 113 22" fill="none" xmlns="http://www.w3.org/2000/svg">
<g clip-path="url(#clip0_2826_33386)">
<path d="M0.199219 15.2228L3.60722 8.35085L0.199219 2.80298V15.2228Z" fill="#EC8F26"/>
<path d="M1.74622 22L10.1992 14.0811L4.79521 16.4532L1.74622 22Z" fill="#EBA12A"/>
<path d="M8.40026 0L0.270264 16.0213L5.56126 13.2896L10.1373 7.65213L8.40026 0Z" fill="#EBA12A"/>
<path d="M5.56126 13.2896L0.270264 16.0212L4.79526 16.4531L10.1993 14.0809L5.56126 13.2896Z" fill="#EC8F26"/>
</g>
<path d="M18.6006 16.66C17.886 16.66 17.1873 16.5427 16.5046 16.308C15.822 16.0733 15.246 15.7267 14.7766 15.268L15.6566 13.652C16.1686 14.0253 16.6646 14.308 17.1446 14.5C17.6353 14.692 18.094 14.788 18.5206 14.788C18.8513 14.788 19.1073 14.7347 19.2886 14.628C19.47 14.5213 19.5606 14.356 19.5606 14.132C19.5606 13.972 19.5073 13.8493 19.4006 13.764C19.294 13.668 19.1286 13.5827 18.9046 13.508C18.6913 13.4333 18.4246 13.3533 18.1046 13.268C17.4646 13.0547 16.9313 12.8467 16.5046 12.644C16.078 12.4413 15.758 12.196 15.5446 11.908C15.3313 11.6093 15.2246 11.2253 15.2246 10.756C15.2246 10.1907 15.3633 9.7 15.6406 9.284C15.9286 8.85733 16.334 8.52667 16.8566 8.292C17.3793 8.05734 18.0033 7.94 18.7286 7.94C19.3046 7.94 19.8646 8.03067 20.4086 8.212C20.9633 8.39333 21.4806 8.69733 21.9606 9.124L20.9686 10.724C20.4886 10.3933 20.062 10.1533 19.6886 10.004C19.3153 9.85467 18.9526 9.78 18.6006 9.78C18.4193 9.78 18.254 9.80133 18.1046 9.844C17.9553 9.88667 17.8326 9.96133 17.7366 10.068C17.6513 10.164 17.6086 10.292 17.6086 10.452C17.6086 10.612 17.6513 10.74 17.7366 10.836C17.8326 10.932 17.9766 11.0173 18.1686 11.092C18.3713 11.156 18.622 11.236 18.9206 11.332C19.614 11.5347 20.19 11.7427 20.6486 11.956C21.1073 12.1587 21.4486 12.4147 21.6726 12.724C21.9073 13.0227 22.0246 13.4227 22.0246 13.924C22.0246 14.7773 21.7153 15.4493 21.0966 15.94C20.4886 16.42 19.6566 16.66 18.6006 16.66ZM27.3538 16.66C26.6391 16.66 26.0044 16.548 25.4498 16.324C24.8951 16.0893 24.4204 15.7747 24.0258 15.38C23.6418 14.9853 23.3484 14.532 23.1458 14.02C22.9431 13.4973 22.8418 12.9533 22.8418 12.388C22.8418 11.5773 23.0178 10.8413 23.3698 10.18C23.7324 9.508 24.2498 8.96933 24.9218 8.564C25.5938 8.148 26.4044 7.94 27.3538 7.94C28.3031 7.94 29.1084 8.14267 29.7698 8.548C30.4418 8.95333 30.9538 9.48667 31.3058 10.148C31.6578 10.7987 31.8338 11.508 31.8338 12.276C31.8338 12.4253 31.8231 12.5747 31.8018 12.724C31.7911 12.8627 31.7804 12.9853 31.7698 13.092H25.5618C25.5938 13.4653 25.6951 13.78 25.8658 14.036C26.0471 14.292 26.2764 14.4893 26.5538 14.628C26.8311 14.756 27.1244 14.82 27.4338 14.82C27.8178 14.82 28.1751 14.7293 28.5058 14.548C28.8471 14.3667 29.0818 14.1213 29.2098 13.812L31.3858 14.42C31.1724 14.8573 30.8684 15.2467 30.4738 15.588C30.0898 15.9187 29.6311 16.18 29.0978 16.372C28.5751 16.564 27.9938 16.66 27.3538 16.66ZM25.4978 11.524H29.1458C29.1031 11.172 29.0018 10.868 28.8418 10.612C28.6818 10.3453 28.4684 10.1427 28.2018 10.004C27.9351 9.85467 27.6418 9.78 27.3218 9.78C26.9911 9.78 26.6924 9.85467 26.4258 10.004C26.1698 10.1427 25.9618 10.3453 25.8018 10.612C25.6418 10.868 25.5404 11.172 25.4978 11.524ZM32.914 13.476V8.1H35.474V12.916C35.474 13.428 35.5753 13.8227 35.778 14.1C35.9807 14.3667 36.2687 14.5 36.642 14.5C36.8767 14.5 37.1007 14.4627 37.314 14.388C37.5273 14.3027 37.7353 14.1693 37.938 13.988C38.1407 13.8067 38.322 13.572 38.482 13.284V8.1H41.042V13.652C41.042 13.908 41.0793 14.0893 41.154 14.196C41.2393 14.292 41.3833 14.3507 41.586 14.372V16.5C41.3513 16.5427 41.1433 16.5747 40.962 16.596C40.7913 16.6173 40.6367 16.628 40.498 16.628C40.05 16.628 39.6927 16.5373 39.426 16.356C39.1593 16.164 38.994 15.8973 38.93 15.556L38.882 15.044C38.498 15.5987 38.018 16.0093 37.442 16.276C36.8767 16.532 36.242 16.66 35.538 16.66C34.6847 16.66 34.034 16.388 33.586 15.844C33.138 15.3 32.914 14.5107 32.914 13.476ZM51.1213 16.5H48.5613V11.78C48.5613 11.2253 48.4546 10.8253 48.2413 10.58C48.0386 10.324 47.7666 10.196 47.4253 10.196C47.1906 10.196 46.9506 10.26 46.7053 10.388C46.4599 10.516 46.2359 10.692 46.0333 10.916C45.8413 11.14 45.6919 11.396 45.5853 11.684V16.5H43.0253V8.1H45.3293V9.508C45.5426 9.17733 45.8093 8.89467 46.1293 8.66C46.4493 8.42533 46.8173 8.24934 47.2333 8.132C47.6493 8.004 48.1026 7.94 48.5933 7.94C49.1373 7.94 49.5746 8.04133 49.9053 8.244C50.2466 8.436 50.5026 8.692 50.6733 9.012C50.8546 9.332 50.9719 9.67867 51.0253 10.052C51.0893 10.4147 51.1213 10.772 51.1213 11.124V16.5ZM56.0861 16.532C55.5315 16.532 55.0248 16.4253 54.5661 16.212C54.1075 15.988 53.7128 15.684 53.3821 15.3C53.0621 14.9053 52.8115 14.452 52.6301 13.94C52.4488 13.428 52.3581 12.8787 52.3581 12.292C52.3581 11.6733 52.4541 11.1027 52.6461 10.58C52.8381 10.0573 53.1048 9.59867 53.4461 9.204C53.7981 8.79867 54.2088 8.48934 54.6781 8.276C55.1581 8.052 55.6861 7.94 56.2621 7.94C56.8915 7.94 57.4461 8.07867 57.9261 8.356C58.4061 8.62267 58.7901 8.996 59.0781 9.476V8.1H61.3021V15.924C61.3021 16.7773 61.0941 17.5133 60.6781 18.132C60.2728 18.7507 59.7021 19.2253 58.9661 19.556C58.2408 19.8973 57.3981 20.068 56.4381 20.068C55.5421 20.068 54.7688 19.9187 54.1181 19.62C53.4781 19.332 52.9181 18.9213 52.4381 18.388L53.8141 16.996C54.1235 17.348 54.5075 17.6253 54.9661 17.828C55.4248 18.0413 55.9155 18.148 56.4381 18.148C56.8541 18.148 57.2381 18.0733 57.5901 17.924C57.9421 17.7747 58.2195 17.5347 58.4221 17.204C58.6355 16.8733 58.7421 16.4467 58.7421 15.924V15.108C58.4861 15.5667 58.1128 15.9187 57.6221 16.164C57.1421 16.4093 56.6301 16.532 56.0861 16.532ZM56.9661 14.5C57.1688 14.5 57.3555 14.4733 57.5261 14.42C57.7075 14.356 57.8728 14.276 58.0221 14.18C58.1715 14.0733 58.3101 13.9507 58.4381 13.812C58.5661 13.6627 58.6675 13.5027 58.7421 13.332V11.572C58.6355 11.2733 58.4808 11.0173 58.2781 10.804C58.0755 10.58 57.8515 10.4093 57.6061 10.292C57.3608 10.1747 57.1048 10.116 56.8381 10.116C56.5715 10.116 56.3208 10.1747 56.0861 10.292C55.8515 10.4093 55.6488 10.58 55.4781 10.804C55.3181 11.0173 55.1901 11.2573 55.0941 11.524C55.0088 11.7907 54.9661 12.068 54.9661 12.356C54.9661 12.6653 55.0141 12.948 55.1101 13.204C55.2168 13.46 55.3608 13.6893 55.5421 13.892C55.7235 14.084 55.9368 14.2333 56.1821 14.34C56.4275 14.4467 56.6888 14.5 56.9661 14.5ZM71.1525 16.5H68.5925V11.78C68.5925 11.236 68.4805 10.836 68.2565 10.58C68.0432 10.324 67.7552 10.196 67.3925 10.196C67.2005 10.196 66.9818 10.26 66.7365 10.388C66.5018 10.5053 66.2832 10.676 66.0805 10.9C65.8778 11.124 65.7232 11.3853 65.6165 11.684V16.5H63.0565V4.82H65.6165V9.508C65.9258 9.00667 66.3312 8.62267 66.8325 8.356C67.3445 8.07867 67.9045 7.94 68.5125 7.94C69.0885 7.94 69.5472 8.036 69.8885 8.228C70.2405 8.42 70.5072 8.676 70.6885 8.996C70.8698 9.30533 70.9925 9.64667 71.0565 10.02C71.1205 10.3933 71.1525 10.7613 71.1525 11.124V16.5ZM76.8534 16.66C76.1387 16.66 75.4987 16.5427 74.9334 16.308C74.3787 16.0733 73.9094 15.7533 73.5254 15.348C73.1414 14.9427 72.848 14.4787 72.6454 13.956C72.4534 13.4333 72.3574 12.884 72.3574 12.308C72.3574 11.7213 72.4534 11.1667 72.6454 10.644C72.848 10.1213 73.1414 9.65733 73.5254 9.252C73.9094 8.84667 74.3787 8.52667 74.9334 8.292C75.4987 8.05734 76.1387 7.94 76.8534 7.94C77.568 7.94 78.2027 8.05734 78.7574 8.292C79.312 8.52667 79.7814 8.84667 80.1654 9.252C80.5494 9.65733 80.8427 10.1213 81.0454 10.644C81.248 11.1667 81.3494 11.7213 81.3494 12.308C81.3494 12.884 81.248 13.4333 81.0454 13.956C80.8427 14.4787 80.5494 14.9427 80.1654 15.348C79.7814 15.7533 79.312 16.0733 78.7574 16.308C78.2027 16.5427 77.568 16.66 76.8534 16.66ZM74.9814 12.308C74.9814 12.7453 75.0614 13.1293 75.2214 13.46C75.392 13.7907 75.616 14.0467 75.8934 14.228C76.1707 14.4093 76.4907 14.5 76.8534 14.5C77.2054 14.5 77.52 14.4093 77.7974 14.228C78.0854 14.036 78.3094 13.7747 78.4694 13.444C78.6294 13.1133 78.7094 12.7347 78.7094 12.308C78.7094 11.8707 78.6294 11.4867 78.4694 11.156C78.3094 10.8253 78.0854 10.5693 77.7974 10.388C77.52 10.2067 77.2054 10.116 76.8534 10.116C76.4907 10.116 76.1707 10.2067 75.8934 10.388C75.616 10.5693 75.392 10.8253 75.2214 11.156C75.0614 11.4867 74.9814 11.8707 74.9814 12.308Z" fill="#EBA12A"/>
<path d="M85.471 8.99217V7.92217H90.271V8.99217H88.541V9.50217C88.541 9.99217 88.661 10.2822 89.191 10.6922C89.611 11.0122 90.111 11.3522 90.611 11.6722L89.941 12.5622C89.501 12.2722 89.081 11.9822 88.711 11.7122C88.291 11.4022 88.021 11.1722 87.981 11.0722H87.971C87.931 11.1922 87.651 11.4622 87.191 11.8222C86.761 12.1622 86.321 12.5022 85.821 12.8522L85.081 11.9322C85.711 11.5022 86.311 11.0422 86.731 10.6722C87.081 10.3622 87.281 9.99217 87.281 9.50217V8.99217H85.471ZM89.641 16.9422C87.921 16.9422 86.781 16.2022 86.781 15.1422V14.7222C86.781 13.6622 87.921 12.9222 89.641 12.9222C91.361 12.9222 92.501 13.6622 92.501 14.7222V15.1422C92.501 16.2022 91.361 16.9422 89.641 16.9422ZM92.471 7.36217V9.48217H93.691V10.5822H92.471V12.8822H91.211V7.36217H92.471ZM89.641 13.9522C88.621 13.9522 88.021 14.4222 88.021 14.8022V15.0622C88.021 15.4422 88.621 15.9122 89.641 15.9122C90.661 15.9122 91.261 15.4422 91.261 15.0622V14.8022C91.261 14.4222 90.661 13.9522 89.641 13.9522ZM94.2356 11.6422H102.756V12.6822H94.2356V11.6422ZM98.4956 16.9422C96.8756 16.9422 95.4956 16.3922 95.4956 15.2222V14.9222C95.4956 13.7522 96.8756 13.2022 98.4956 13.2022C100.116 13.2022 101.496 13.7522 101.496 14.9222V15.2222C101.496 16.3922 100.116 16.9422 98.4956 16.9422ZM98.4956 14.2222C97.6056 14.2222 96.7456 14.5222 96.7456 15.0022V15.1422C96.7456 15.6222 97.6056 15.9222 98.4956 15.9222C99.3856 15.9222 100.246 15.6222 100.246 15.1422V15.0022C100.246 14.5222 99.3856 14.2222 98.4956 14.2222ZM98.5156 9.67217H98.5056C98.4156 9.83217 98.0956 10.0622 97.3356 10.4122C96.7356 10.6922 96.0956 10.9722 95.3356 11.2722L94.8556 10.2622C95.5356 10.0022 96.2956 9.67217 96.9356 9.36217C97.5456 9.06217 97.8556 8.76217 97.8556 8.14217V7.46217H99.1356V8.14217C99.1356 8.75217 99.4356 9.06217 100.046 9.36217C100.686 9.67217 101.446 10.0022 102.126 10.2622L101.656 11.2522C100.896 10.9522 100.236 10.6622 99.6556 10.3922C98.9156 10.0522 98.5956 9.83217 98.5156 9.67217ZM103.38 14.4322H107.01V13.6222C105.69 13.4722 104.78 12.8622 104.78 11.9122V11.5322C104.78 10.4422 106 9.79217 107.64 9.79217C109.28 9.79217 110.5 10.4422 110.5 11.5322V11.9122C110.5 12.8622 109.58 13.4722 108.27 13.6222V14.4322H111.9V15.4922H103.38V14.4322ZM108.28 7.26217V8.35217H111.11V9.41217H104.17V8.35217H107V7.26217H108.28ZM107.64 10.8222C106.6 10.8222 106 11.2022 106 11.5922V11.8522C106 12.2422 106.6 12.6222 107.64 12.6222C108.68 12.6222 109.28 12.2422 109.28 11.8522V11.5922C109.28 11.2022 108.68 10.8222 107.64 10.8222Z" fill="#EBA12A" fill-opacity="0.4"/>
<defs>
<clipPath id="clip0_2826_33386">
<rect width="10" height="22" fill="white" transform="translate(0.199219)"/>
</clipPath>
</defs>
</svg>
