<svg width="113" height="22" viewBox="0 0 113 22" fill="none" xmlns="http://www.w3.org/2000/svg">
<g clip-path="url(#clip0_2826_33406)">
<path d="M0.699219 15.2228L4.10722 8.35085L0.699219 2.80298V15.2228Z" fill="#EC8F26"/>
<path d="M2.24622 22L10.6992 14.0811L5.29521 16.4532L2.24622 22Z" fill="#EBA12A"/>
<path d="M8.90026 0L0.770264 16.0213L6.06126 13.2896L10.6373 7.65213L8.90026 0Z" fill="#EBA12A"/>
<path d="M6.06126 13.2896L0.770264 16.0212L5.29526 16.4531L10.6993 14.0809L6.06126 13.2896Z" fill="#EC8F26"/>
</g>
<path d="M19.1006 16.66C18.386 16.66 17.6873 16.5427 17.0046 16.308C16.322 16.0733 15.746 15.7267 15.2766 15.268L16.1566 13.652C16.6686 14.0253 17.1646 14.308 17.6446 14.5C18.1353 14.692 18.594 14.788 19.0206 14.788C19.3513 14.788 19.6073 14.7347 19.7886 14.628C19.97 14.5213 20.0606 14.356 20.0606 14.132C20.0606 13.972 20.0073 13.8493 19.9006 13.764C19.794 13.668 19.6286 13.5827 19.4046 13.508C19.1913 13.4333 18.9246 13.3533 18.6046 13.268C17.9646 13.0547 17.4313 12.8467 17.0046 12.644C16.578 12.4413 16.258 12.196 16.0446 11.908C15.8313 11.6093 15.7246 11.2253 15.7246 10.756C15.7246 10.1907 15.8633 9.7 16.1406 9.284C16.4286 8.85733 16.834 8.52667 17.3566 8.292C17.8793 8.05734 18.5033 7.94 19.2286 7.94C19.8046 7.94 20.3646 8.03067 20.9086 8.212C21.4633 8.39333 21.9806 8.69733 22.4606 9.124L21.4686 10.724C20.9886 10.3933 20.562 10.1533 20.1886 10.004C19.8153 9.85467 19.4526 9.78 19.1006 9.78C18.9193 9.78 18.754 9.80133 18.6046 9.844C18.4553 9.88667 18.3326 9.96133 18.2366 10.068C18.1513 10.164 18.1086 10.292 18.1086 10.452C18.1086 10.612 18.1513 10.74 18.2366 10.836C18.3326 10.932 18.4766 11.0173 18.6686 11.092C18.8713 11.156 19.122 11.236 19.4206 11.332C20.114 11.5347 20.69 11.7427 21.1486 11.956C21.6073 12.1587 21.9486 12.4147 22.1726 12.724C22.4073 13.0227 22.5246 13.4227 22.5246 13.924C22.5246 14.7773 22.2153 15.4493 21.5966 15.94C20.9886 16.42 20.1566 16.66 19.1006 16.66ZM27.8378 16.66C27.1231 16.66 26.4831 16.5427 25.9178 16.308C25.3631 16.0733 24.8938 15.7533 24.5098 15.348C24.1258 14.9427 23.8324 14.4787 23.6298 13.956C23.4378 13.4333 23.3418 12.884 23.3418 12.308C23.3418 11.7213 23.4378 11.1667 23.6298 10.644C23.8324 10.1213 24.1258 9.65733 24.5098 9.252C24.8938 8.84667 25.3631 8.52667 25.9178 8.292C26.4831 8.05734 27.1231 7.94 27.8378 7.94C28.5524 7.94 29.1871 8.05734 29.7418 8.292C30.2964 8.52667 30.7658 8.84667 31.1498 9.252C31.5338 9.65733 31.8271 10.1213 32.0298 10.644C32.2324 11.1667 32.3338 11.7213 32.3338 12.308C32.3338 12.884 32.2324 13.4333 32.0298 13.956C31.8271 14.4787 31.5338 14.9427 31.1498 15.348C30.7658 15.7533 30.2964 16.0733 29.7418 16.308C29.1871 16.5427 28.5524 16.66 27.8378 16.66ZM25.9658 12.308C25.9658 12.7453 26.0458 13.1293 26.2058 13.46C26.3764 13.7907 26.6004 14.0467 26.8778 14.228C27.1551 14.4093 27.4751 14.5 27.8378 14.5C28.1898 14.5 28.5044 14.4093 28.7818 14.228C29.0698 14.036 29.2938 13.7747 29.4538 13.444C29.6138 13.1133 29.6938 12.7347 29.6938 12.308C29.6938 11.8707 29.6138 11.4867 29.4538 11.156C29.2938 10.8253 29.0698 10.5693 28.7818 10.388C28.5044 10.2067 28.1898 10.116 27.8378 10.116C27.4751 10.116 27.1551 10.2067 26.8778 10.388C26.6004 10.5693 26.3764 10.8253 26.2058 11.156C26.0458 11.4867 25.9658 11.8707 25.9658 12.308ZM37.6034 16.66C36.8887 16.66 36.2487 16.5427 35.6834 16.308C35.1287 16.0733 34.6594 15.7533 34.2754 15.348C33.8914 14.9427 33.5981 14.4787 33.3954 13.956C33.2034 13.4333 33.1074 12.884 33.1074 12.308C33.1074 11.7213 33.2034 11.1667 33.3954 10.644C33.5981 10.1213 33.8914 9.65733 34.2754 9.252C34.6594 8.84667 35.1287 8.52667 35.6834 8.292C36.2487 8.05734 36.8887 7.94 37.6034 7.94C38.3181 7.94 38.9527 8.05734 39.5074 8.292C40.0621 8.52667 40.5314 8.84667 40.9154 9.252C41.2994 9.65733 41.5927 10.1213 41.7954 10.644C41.998 11.1667 42.0994 11.7213 42.0994 12.308C42.0994 12.884 41.998 13.4333 41.7954 13.956C41.5927 14.4787 41.2994 14.9427 40.9154 15.348C40.5314 15.7533 40.0621 16.0733 39.5074 16.308C38.9527 16.5427 38.3181 16.66 37.6034 16.66ZM35.7314 12.308C35.7314 12.7453 35.8114 13.1293 35.9714 13.46C36.1421 13.7907 36.3661 14.0467 36.6434 14.228C36.9207 14.4093 37.2407 14.5 37.6034 14.5C37.9554 14.5 38.2701 14.4093 38.5474 14.228C38.8354 14.036 39.0594 13.7747 39.2194 13.444C39.3794 13.1133 39.4594 12.7347 39.4594 12.308C39.4594 11.8707 39.3794 11.4867 39.2194 11.156C39.0594 10.8253 38.8354 10.5693 38.5474 10.388C38.2701 10.2067 37.9554 10.116 37.6034 10.116C37.2407 10.116 36.9207 10.2067 36.6434 10.388C36.3661 10.5693 36.1421 10.8253 35.9714 11.156C35.8114 11.4867 35.7314 11.8707 35.7314 12.308ZM51.465 16.5H48.905V11.78C48.905 11.2253 48.7983 10.8253 48.585 10.58C48.3823 10.324 48.1103 10.196 47.769 10.196C47.5343 10.196 47.2943 10.26 47.049 10.388C46.8037 10.516 46.5797 10.692 46.377 10.916C46.185 11.14 46.0357 11.396 45.929 11.684V16.5H43.369V8.1H45.673V9.508C45.8863 9.17733 46.153 8.89467 46.473 8.66C46.793 8.42533 47.161 8.24934 47.577 8.132C47.993 8.004 48.4463 7.94 48.937 7.94C49.481 7.94 49.9183 8.04133 50.249 8.244C50.5903 8.436 50.8463 8.692 51.017 9.012C51.1983 9.332 51.3157 9.67867 51.369 10.052C51.433 10.4147 51.465 10.772 51.465 11.124V16.5ZM56.4299 16.532C55.8752 16.532 55.3685 16.4253 54.9099 16.212C54.4512 15.988 54.0565 15.684 53.7259 15.3C53.4059 14.9053 53.1552 14.452 52.9739 13.94C52.7925 13.428 52.7019 12.8787 52.7019 12.292C52.7019 11.6733 52.7979 11.1027 52.9899 10.58C53.1819 10.0573 53.4485 9.59867 53.7899 9.204C54.1419 8.79867 54.5525 8.48934 55.0219 8.276C55.5019 8.052 56.0299 7.94 56.6059 7.94C57.2352 7.94 57.7899 8.07867 58.2699 8.356C58.7499 8.62267 59.1339 8.996 59.4219 9.476V8.1H61.6459V15.924C61.6459 16.7773 61.4379 17.5133 61.0219 18.132C60.6165 18.7507 60.0459 19.2253 59.3099 19.556C58.5845 19.8973 57.7419 20.068 56.7819 20.068C55.8859 20.068 55.1125 19.9187 54.4619 19.62C53.8219 19.332 53.2619 18.9213 52.7819 18.388L54.1579 16.996C54.4672 17.348 54.8512 17.6253 55.3099 17.828C55.7685 18.0413 56.2592 18.148 56.7819 18.148C57.1979 18.148 57.5819 18.0733 57.9339 17.924C58.2859 17.7747 58.5632 17.5347 58.7659 17.204C58.9792 16.8733 59.0859 16.4467 59.0859 15.924V15.108C58.8299 15.5667 58.4565 15.9187 57.9659 16.164C57.4859 16.4093 56.9739 16.532 56.4299 16.532ZM57.3099 14.5C57.5125 14.5 57.6992 14.4733 57.8699 14.42C58.0512 14.356 58.2165 14.276 58.3659 14.18C58.5152 14.0733 58.6539 13.9507 58.7819 13.812C58.9099 13.6627 59.0112 13.5027 59.0859 13.332V11.572C58.9792 11.2733 58.8245 11.0173 58.6219 10.804C58.4192 10.58 58.1952 10.4093 57.9499 10.292C57.7045 10.1747 57.4485 10.116 57.1819 10.116C56.9152 10.116 56.6645 10.1747 56.4299 10.292C56.1952 10.4093 55.9925 10.58 55.8219 10.804C55.6619 11.0173 55.5339 11.2573 55.4379 11.524C55.3525 11.7907 55.3099 12.068 55.3099 12.356C55.3099 12.6653 55.3579 12.948 55.4539 13.204C55.5605 13.46 55.7045 13.6893 55.8859 13.892C56.0672 14.084 56.2805 14.2333 56.5259 14.34C56.7712 14.4467 57.0325 14.5 57.3099 14.5ZM63.4643 17.764C63.6776 17.828 63.8749 17.876 64.0563 17.908C64.2483 17.9507 64.4189 17.972 64.5683 17.972C64.7709 17.972 64.9416 17.924 65.0803 17.828C65.2296 17.7427 65.3576 17.588 65.4643 17.364C65.5709 17.1507 65.6669 16.8627 65.7523 16.5L62.5523 8.1H65.1923L67.1443 13.876L68.8083 8.1H71.2243L68.0243 17.86C67.8749 18.3187 67.6456 18.724 67.3363 19.076C67.0269 19.428 66.6536 19.7 66.2163 19.892C65.7789 20.0947 65.2989 20.196 64.7763 20.196C64.5523 20.196 64.3336 20.1747 64.1203 20.132C63.9069 20.1 63.6883 20.0413 63.4643 19.956V17.764ZM72.1484 13.476V8.1H74.7084V12.916C74.7084 13.428 74.8097 13.8227 75.0124 14.1C75.215 14.3667 75.503 14.5 75.8764 14.5C76.111 14.5 76.335 14.4627 76.5484 14.388C76.7617 14.3027 76.9697 14.1693 77.1724 13.988C77.375 13.8067 77.5564 13.572 77.7164 13.284V8.1H80.2764V13.652C80.2764 13.908 80.3137 14.0893 80.3884 14.196C80.4737 14.292 80.6177 14.3507 80.8204 14.372V16.5C80.5857 16.5427 80.3777 16.5747 80.1964 16.596C80.0257 16.6173 79.871 16.628 79.7324 16.628C79.2844 16.628 78.927 16.5373 78.6604 16.356C78.3937 16.164 78.2284 15.8973 78.1644 15.556L78.1164 15.044C77.7324 15.5987 77.2524 16.0093 76.6764 16.276C76.111 16.532 75.4764 16.66 74.7724 16.66C73.919 16.66 73.2684 16.388 72.8204 15.844C72.3724 15.3 72.1484 14.5107 72.1484 13.476Z" fill="#EBA12A"/>
<path d="M84.721 11.8422V10.7722C86.341 10.7722 87.521 10.7622 88.471 10.7322C88.571 10.2022 88.611 9.65217 88.611 9.10217V8.84217L85.441 8.85217V7.78217H89.861V8.90217C89.861 9.46217 89.811 10.1122 89.731 10.6722C90.031 10.6522 90.321 10.6322 90.601 10.6022L90.691 11.6622C90.061 11.7422 89.251 11.7922 88.151 11.8122V13.4122H86.901V11.8322C86.251 11.8422 85.531 11.8422 84.721 11.8422ZM89.321 13.3222V12.2922H91.161V7.36217H92.421V14.5122H91.161V13.3222H89.321ZM87.501 13.8922V15.5122H92.571V16.5922H86.231V13.8922H87.501ZM93.7356 11.9022H102.256V12.9722H98.7656V14.6222H97.5056V12.9722H93.7356V11.9022ZM96.1956 13.8222V15.4922H101.246V16.5622H94.9356V13.8222H96.1956ZM98.0156 9.87217H98.0056C97.9156 10.0322 97.5956 10.2622 96.8356 10.6122C96.2356 10.8922 95.5956 11.1722 94.8356 11.4722L94.3556 10.4422C95.0356 10.1822 95.7956 9.85217 96.4356 9.54217C97.0456 9.24217 97.3556 8.94217 97.3556 8.32217V7.50217H98.6356V8.32217C98.6356 8.93217 98.9356 9.24217 99.5456 9.54217C100.186 9.85217 100.946 10.1822 101.626 10.4422L101.156 11.4522C100.396 11.1522 99.7356 10.8622 99.1556 10.5922C98.4156 10.2522 98.0956 10.0322 98.0156 9.87217ZM111.4 13.1022H109.36V16.6322H108.11V13.1022H106.17V16.6322H104.92V13.1022H102.88V12.0322H108.65C108.86 11.1022 108.92 10.2822 108.92 9.37217V8.99217H103.93V7.90217H110.18V9.14217C110.18 10.1822 110.09 11.2422 109.92 12.0322H111.4V13.1022Z" fill="#EBA12A" fill-opacity="0.4"/>
<defs>
<clipPath id="clip0_2826_33406">
<rect width="10" height="22" fill="white" transform="translate(0.699219)"/>
</clipPath>
</defs>
</svg>
