<svg width="77" height="22" viewBox="0 0 77 22" fill="none" xmlns="http://www.w3.org/2000/svg">
<g clip-path="url(#clip0_2826_33366)">
<path d="M0.699219 15.2228L4.10722 8.35085L0.699219 2.80298V15.2228Z" fill="#EC8F26"/>
<path d="M2.24622 22L10.6992 14.0811L5.29521 16.4532L2.24622 22Z" fill="#EBA12A"/>
<path d="M8.90026 0L0.770264 16.0213L6.06126 13.2896L10.6373 7.65213L8.90026 0Z" fill="#EBA12A"/>
<path d="M6.06126 13.2896L0.770264 16.0212L5.29526 16.4531L10.6993 14.0809L6.06126 13.2896Z" fill="#EC8F26"/>
</g>
<path d="M19.1006 16.66C18.386 16.66 17.6873 16.5427 17.0046 16.308C16.322 16.0733 15.746 15.7267 15.2766 15.268L16.1566 13.652C16.6686 14.0253 17.1646 14.308 17.6446 14.5C18.1353 14.692 18.594 14.788 19.0206 14.788C19.3513 14.788 19.6073 14.7347 19.7886 14.628C19.97 14.5213 20.0606 14.356 20.0606 14.132C20.0606 13.972 20.0073 13.8493 19.9006 13.764C19.794 13.668 19.6286 13.5827 19.4046 13.508C19.1913 13.4333 18.9246 13.3533 18.6046 13.268C17.9646 13.0547 17.4313 12.8467 17.0046 12.644C16.578 12.4413 16.258 12.196 16.0446 11.908C15.8313 11.6093 15.7246 11.2253 15.7246 10.756C15.7246 10.1907 15.8633 9.7 16.1406 9.284C16.4286 8.85733 16.834 8.52667 17.3566 8.292C17.8793 8.05734 18.5033 7.94 19.2286 7.94C19.8046 7.94 20.3646 8.03067 20.9086 8.212C21.4633 8.39333 21.9806 8.69733 22.4606 9.124L21.4686 10.724C20.9886 10.3933 20.562 10.1533 20.1886 10.004C19.8153 9.85467 19.4526 9.78 19.1006 9.78C18.9193 9.78 18.754 9.80133 18.6046 9.844C18.4553 9.88667 18.3326 9.96133 18.2366 10.068C18.1513 10.164 18.1086 10.292 18.1086 10.452C18.1086 10.612 18.1513 10.74 18.2366 10.836C18.3326 10.932 18.4766 11.0173 18.6686 11.092C18.8713 11.156 19.122 11.236 19.4206 11.332C20.114 11.5347 20.69 11.7427 21.1486 11.956C21.6073 12.1587 21.9486 12.4147 22.1726 12.724C22.4073 13.0227 22.5246 13.4227 22.5246 13.924C22.5246 14.7773 22.2153 15.4493 21.5966 15.94C20.9886 16.42 20.1566 16.66 19.1006 16.66ZM29.2153 16.052C28.9806 16.148 28.7193 16.244 28.4313 16.34C28.1539 16.436 27.8606 16.5107 27.5513 16.564C27.2419 16.628 26.9379 16.66 26.6393 16.66C26.2126 16.66 25.8179 16.5907 25.4553 16.452C25.1033 16.3027 24.8206 16.0627 24.6073 15.732C24.4046 15.4013 24.3033 14.964 24.3033 14.42V10.036H23.2313V8.1H24.3033V5.428H26.8633V8.1H28.5753V10.036H26.8633V13.54C26.8633 13.8173 26.9326 14.02 27.0713 14.148C27.2099 14.2653 27.3859 14.324 27.5993 14.324C27.7806 14.324 27.9726 14.292 28.1753 14.228C28.3886 14.164 28.5699 14.0947 28.7193 14.02L29.2153 16.052ZM29.6848 13.988C29.6848 13.4333 29.8394 12.948 30.1488 12.532C30.4581 12.116 30.8848 11.7907 31.4288 11.556C31.9728 11.3107 32.5968 11.188 33.3008 11.188C33.6421 11.188 33.9781 11.22 34.3088 11.284C34.6394 11.3373 34.9274 11.4173 35.1728 11.524V11.156C35.1728 10.6973 35.0341 10.3453 34.7568 10.1C34.4794 9.85467 34.0581 9.732 33.4928 9.732C33.0234 9.732 32.5808 9.812 32.1648 9.972C31.7594 10.132 31.3274 10.3613 30.8688 10.66L30.1008 9.028C30.6554 8.66533 31.2314 8.39333 31.8288 8.212C32.4368 8.03067 33.0768 7.94 33.7488 7.94C35.0074 7.94 35.9834 8.244 36.6768 8.852C37.3808 9.44933 37.7328 10.3187 37.7328 11.46V13.652C37.7328 13.908 37.7701 14.0893 37.8448 14.196C37.9301 14.292 38.0741 14.3507 38.2768 14.372V16.5C38.0634 16.5427 37.8608 16.5747 37.6688 16.596C37.4874 16.6173 37.3274 16.628 37.1888 16.628C36.7088 16.628 36.3408 16.532 36.0848 16.34C35.8394 16.148 35.6848 15.8867 35.6208 15.556L35.5728 15.188C35.1994 15.668 34.7514 16.036 34.2288 16.292C33.7168 16.5373 33.1781 16.66 32.6128 16.66C32.0581 16.66 31.5568 16.5427 31.1088 16.308C30.6714 16.0733 30.3248 15.7533 30.0688 15.348C29.8128 14.9427 29.6848 14.4893 29.6848 13.988ZM34.7728 14.308C34.8901 14.212 34.9861 14.1053 35.0608 13.988C35.1354 13.8707 35.1728 13.7587 35.1728 13.652V12.9C34.9594 12.8147 34.7194 12.7507 34.4528 12.708C34.1968 12.6547 33.9568 12.628 33.7328 12.628C33.2634 12.628 32.8741 12.7347 32.5648 12.948C32.2554 13.1507 32.1008 13.4227 32.1008 13.764C32.1008 13.956 32.1541 14.132 32.2608 14.292C32.3674 14.452 32.5114 14.58 32.6928 14.676C32.8848 14.772 33.1088 14.82 33.3648 14.82C33.6208 14.82 33.8768 14.772 34.1328 14.676C34.3888 14.58 34.6021 14.4573 34.7728 14.308ZM44.9158 10.292C44.2971 10.292 43.7371 10.3933 43.2358 10.596C42.7344 10.788 42.3718 11.076 42.1478 11.46V16.5H39.5878V8.1H41.9398V9.796C42.2278 9.23067 42.6011 8.788 43.0598 8.468C43.5184 8.148 43.9984 7.98267 44.4998 7.972C44.6171 7.972 44.7024 7.972 44.7558 7.972C44.8198 7.972 44.8731 7.97733 44.9158 7.988V10.292Z" fill="#EBA12A"/>
<path d="M49.791 7.68217H55.911V11.2222H49.791V7.68217ZM51.041 8.73217V10.1722H54.661V8.73217H51.041ZM48.591 11.9522H57.111V13.0122H53.621V14.6322H52.361V13.0122H48.591V11.9522ZM51.051 13.8522V15.4922H56.101V16.5622H49.791V13.8522H51.051ZM64.9656 7.67217V8.70217H60.1956V9.95217H65.0356V10.9822H62.6256V11.7522H66.2556V12.7822H57.7356V11.7522H61.3656V10.9822H58.9456V7.67217H64.9656ZM61.9956 16.9422C60.3756 16.9422 58.9956 16.3922 58.9956 15.2322V14.9322C58.9956 13.7722 60.3756 13.2222 61.9956 13.2222C63.6156 13.2222 64.9956 13.7722 64.9956 14.9322V15.2322C64.9956 16.3922 63.6156 16.9422 61.9956 16.9422ZM61.9956 14.2422C61.1056 14.2422 60.2456 14.5422 60.2456 15.0122V15.1522C60.2456 15.6222 61.1056 15.9222 61.9956 15.9222C62.8856 15.9222 63.7456 15.6222 63.7456 15.1522V15.0122C63.7456 14.5422 62.8856 14.2422 61.9956 14.2422ZM66.8803 12.6722H75.4003V13.7422H71.7803V16.6622H70.5103V13.7422H66.8803V12.6722ZM71.1403 11.9522C69.3103 11.9522 67.9503 11.2322 67.9503 9.95217V9.53217C67.9503 8.25217 69.3103 7.53217 71.1403 7.53217C72.9703 7.53217 74.3303 8.25217 74.3303 9.53217V9.95217C74.3303 11.2322 72.9703 11.9522 71.1403 11.9522ZM71.1403 8.60217C70.0303 8.60217 69.1903 8.98217 69.1903 9.59217V9.89217C69.1903 10.5022 70.0303 10.8822 71.1403 10.8822C72.2503 10.8822 73.0903 10.5022 73.0903 9.89217V9.59217C73.0903 8.98217 72.2503 8.60217 71.1403 8.60217Z" fill="#EBA12A" fill-opacity="0.4"/>
<defs>
<clipPath id="clip0_2826_33366">
<rect width="10" height="22" fill="white" transform="translate(0.699219)"/>
</clipPath>
</defs>
</svg>
