<svg width="113" height="22" viewBox="0 0 113 22" fill="none" xmlns="http://www.w3.org/2000/svg">
<g clip-path="url(#clip0_2826_33315)">
<path d="M0.199219 15.2228L3.60722 8.35085L0.199219 2.80298V15.2228Z" fill="#EC8F26"/>
<path d="M1.74622 22L10.1992 14.0811L4.79521 16.4532L1.74622 22Z" fill="#EBA12A"/>
<path d="M8.40026 0L0.270264 16.0213L5.56126 13.2896L10.1373 7.65213L8.40026 0Z" fill="#EBA12A"/>
<path d="M5.56126 13.2896L0.270264 16.0212L4.79526 16.4531L10.1993 14.0809L5.56126 13.2896Z" fill="#EC8F26"/>
</g>
<path d="M15.4486 17.764C15.662 17.828 15.8593 17.876 16.0406 17.908C16.2326 17.9507 16.4033 17.972 16.5526 17.972C16.7553 17.972 16.926 17.924 17.0646 17.828C17.214 17.7427 17.342 17.588 17.4486 17.364C17.5553 17.1507 17.6513 16.8627 17.7366 16.5L14.5366 8.1H17.1766L19.1286 13.876L20.7926 8.1H23.2086L20.0086 17.86C19.8593 18.3187 19.63 18.724 19.3206 19.076C19.0113 19.428 18.638 19.7 18.2006 19.892C17.7633 20.0947 17.2833 20.196 16.7606 20.196C16.5366 20.196 16.318 20.1747 16.1046 20.132C15.8913 20.1 15.6726 20.0413 15.4486 19.956V17.764ZM24.1328 13.476V8.1H26.6928V12.916C26.6928 13.428 26.7941 13.8227 26.9968 14.1C27.1994 14.3667 27.4874 14.5 27.8608 14.5C28.0954 14.5 28.3194 14.4627 28.5328 14.388C28.7461 14.3027 28.9541 14.1693 29.1568 13.988C29.3594 13.8067 29.5408 13.572 29.7008 13.284V8.1H32.2608V13.652C32.2608 13.908 32.2981 14.0893 32.3728 14.196C32.4581 14.292 32.6021 14.3507 32.8048 14.372V16.5C32.5701 16.5427 32.3621 16.5747 32.1808 16.596C32.0101 16.6173 31.8554 16.628 31.7168 16.628C31.2688 16.628 30.9114 16.5373 30.6448 16.356C30.3781 16.164 30.2128 15.8973 30.1488 15.556L30.1008 15.044C29.7168 15.5987 29.2368 16.0093 28.6608 16.276C28.0954 16.532 27.4608 16.66 26.7568 16.66C25.9034 16.66 25.2528 16.388 24.8048 15.844C24.3568 15.3 24.1328 14.5107 24.1328 13.476ZM47.524 16.5H44.964V11.78C44.964 11.236 44.8627 10.836 44.66 10.58C44.4573 10.324 44.196 10.196 43.876 10.196C43.5347 10.196 43.1987 10.3347 42.868 10.612C42.5373 10.8893 42.3027 11.2467 42.164 11.684V16.5H39.604V11.78C39.604 11.2253 39.5027 10.8253 39.3 10.58C39.0973 10.324 38.836 10.196 38.516 10.196C38.1853 10.196 37.8547 10.3347 37.524 10.612C37.1933 10.8893 36.9533 11.2467 36.804 11.684V16.5H34.244V8.1H36.548V9.508C36.8573 9.00667 37.2733 8.62267 37.796 8.356C38.3293 8.07867 38.948 7.94 39.652 7.94C40.3453 7.94 40.8787 8.10534 41.252 8.436C41.6253 8.756 41.8653 9.13467 41.972 9.572C42.292 9.04933 42.7133 8.64933 43.236 8.372C43.7693 8.084 44.3667 7.94 45.028 7.94C45.5613 7.94 45.9933 8.04133 46.324 8.244C46.6547 8.436 46.9053 8.692 47.076 9.012C47.2467 9.332 47.364 9.67867 47.428 10.052C47.492 10.4147 47.524 10.772 47.524 11.124V16.5ZM49.1205 17.764C49.3338 17.828 49.5312 17.876 49.7125 17.908C49.9045 17.9507 50.0752 17.972 50.2245 17.972C50.4272 17.972 50.5978 17.924 50.7365 17.828C50.8858 17.7427 51.0138 17.588 51.1205 17.364C51.2272 17.1507 51.3232 16.8627 51.4085 16.5L48.2085 8.1H50.8485L52.8005 13.876L54.4645 8.1H56.8805L53.6805 17.86C53.5312 18.3187 53.3018 18.724 52.9925 19.076C52.6832 19.428 52.3098 19.7 51.8725 19.892C51.4352 20.0947 50.9552 20.196 50.4325 20.196C50.2085 20.196 49.9898 20.1747 49.7765 20.132C49.5632 20.1 49.3445 20.0413 49.1205 19.956V17.764ZM57.8046 13.476V8.1H60.3646V12.916C60.3646 13.428 60.466 13.8227 60.6686 14.1C60.8713 14.3667 61.1593 14.5 61.5326 14.5C61.7673 14.5 61.9913 14.4627 62.2046 14.388C62.418 14.3027 62.626 14.1693 62.8286 13.988C63.0313 13.8067 63.2126 13.572 63.3726 13.284V8.1H65.9326V13.652C65.9326 13.908 65.97 14.0893 66.0446 14.196C66.13 14.292 66.274 14.3507 66.4766 14.372V16.5C66.242 16.5427 66.034 16.5747 65.8526 16.596C65.682 16.6173 65.5273 16.628 65.3886 16.628C64.9406 16.628 64.5833 16.5373 64.3166 16.356C64.05 16.164 63.8846 15.8973 63.8206 15.556L63.7726 15.044C63.3886 15.5987 62.9086 16.0093 62.3326 16.276C61.7673 16.532 61.1326 16.66 60.4286 16.66C59.5753 16.66 58.9246 16.388 58.4766 15.844C58.0286 15.3 57.8046 14.5107 57.8046 13.476ZM81.1959 16.5H78.6359V11.78C78.6359 11.236 78.5345 10.836 78.3319 10.58C78.1292 10.324 77.8679 10.196 77.5479 10.196C77.2065 10.196 76.8705 10.3347 76.5399 10.612C76.2092 10.8893 75.9745 11.2467 75.8359 11.684V16.5H73.2759V11.78C73.2759 11.2253 73.1745 10.8253 72.9719 10.58C72.7692 10.324 72.5079 10.196 72.1879 10.196C71.8572 10.196 71.5265 10.3347 71.1959 10.612C70.8652 10.8893 70.6252 11.2467 70.4759 11.684V16.5H67.9159V8.1H70.2199V9.508C70.5292 9.00667 70.9452 8.62267 71.4679 8.356C72.0012 8.07867 72.6199 7.94 73.3239 7.94C74.0172 7.94 74.5505 8.10534 74.9239 8.436C75.2972 8.756 75.5372 9.13467 75.6439 9.572C75.9639 9.04933 76.3852 8.64933 76.9079 8.372C77.4412 8.084 78.0385 7.94 78.6999 7.94C79.2332 7.94 79.6652 8.04133 79.9959 8.244C80.3265 8.436 80.5772 8.692 80.7479 9.012C80.9185 9.332 81.0359 9.67867 81.0999 10.052C81.1639 10.4147 81.1959 10.772 81.1959 11.124V16.5Z" fill="#EBA12A"/>
<path d="M86.141 9.18217V8.11217H92.561V9.18217H89.991V9.43217C89.991 10.0722 90.221 10.4522 90.911 10.8722C91.531 11.2522 92.231 11.6122 93.041 12.0222L92.481 13.0022C91.821 12.6822 90.901 12.1822 90.261 11.8022C89.741 11.4922 89.481 11.2722 89.391 11.0922H89.381C89.301 11.2822 88.991 11.5022 88.451 11.8222C87.811 12.2022 86.901 12.6922 86.231 13.0222L85.661 12.0222C86.471 11.6122 87.171 11.2522 87.791 10.8722C88.481 10.4522 88.711 10.0722 88.711 9.43217V9.18217H86.141ZM85.091 14.4222H88.721V12.5922H89.981V14.4222H93.611V15.4922H85.091V14.4222ZM98.4956 11.9522C96.6656 11.9522 95.3056 11.2322 95.3056 9.95217V9.53217C95.3056 8.25217 96.6656 7.53217 98.4956 7.53217C100.326 7.53217 101.686 8.25217 101.686 9.53217V9.95217C101.686 11.2322 100.326 11.9522 98.4956 11.9522ZM94.2356 12.6622H102.756V13.7322H100.716V16.6322H99.4656V13.7322H97.5256V16.6322H96.2756V13.7322H94.2356V12.6622ZM98.4956 8.60217C97.3856 8.60217 96.5456 8.98217 96.5456 9.59217V9.89217C96.5456 10.5022 97.3856 10.8822 98.4956 10.8822C99.6056 10.8822 100.446 10.5022 100.446 9.89217V9.59217C100.446 8.98217 99.6056 8.60217 98.4956 8.60217ZM108.27 7.91217V12.4622H103.88V7.91217H108.27ZM107.02 11.4022V8.97217H105.13V11.4022H107.02ZM111.11 7.36217V13.9822H109.85V7.36217H111.11ZM106.46 13.4422V15.4822H111.26V16.5622H105.19V13.4422H106.46Z" fill="#EBA12A" fill-opacity="0.4"/>
<defs>
<clipPath id="clip0_2826_33315">
<rect width="10" height="22" fill="white" transform="translate(0.199219)"/>
</clipPath>
</defs>
</svg>
