<svg width="80" height="80" viewBox="0 0 80 80" fill="none" xmlns="http://www.w3.org/2000/svg">
<g clip-path="url(#clip0_4053_32257)">
<path d="M40.3336 7C21.9336 7 7.00024 21.9333 7.00024 40.3333C7.00024 58.7333 21.9336 73.6667 40.3336 73.6667C58.7336 73.6667 73.6669 58.7333 73.6669 40.3333C73.6669 21.9333 58.7336 7 40.3336 7ZM40.3336 17C45.8669 17 50.3336 21.4667 50.3336 27C50.3336 32.5333 45.8669 37 40.3336 37C34.8002 37 30.3336 32.5333 30.3336 27C30.3336 21.4667 34.8002 17 40.3336 17ZM40.3336 64.3333C32.0002 64.3333 24.6336 60.0667 20.3336 53.6C20.4336 46.9667 33.6669 43.3333 40.3336 43.3333C46.9669 43.3333 60.2336 46.9667 60.3336 53.6C56.0336 60.0667 48.6669 64.3333 40.3336 64.3333Z" fill="#F6C5CD"/>
</g>
<defs>
<clipPath id="clip0_4053_32257">
<rect width="80" height="80" fill="white"/>
</clipPath>
</defs>
</svg>
