<svg width="14" height="10" viewBox="0 0 14 10" fill="none" xmlns="http://www.w3.org/2000/svg">
<path d="M8.27273 3.03865C8.27273 2.94319 8.3073 2.84498 8.37645 2.74401C8.44518 2.64346 8.52197 2.57728 8.60682 2.54546C8.91439 2.4394 9.22197 2.35986 9.52955 2.30683C9.83712 2.2538 10.1606 2.22728 10.5 2.22728C10.7121 2.22728 10.9217 2.24043 11.1287 2.26673C11.3353 2.29346 11.5394 2.32804 11.7409 2.37046C11.8364 2.39167 11.9185 2.4447 11.9872 2.52955C12.0563 2.6144 12.0909 2.70986 12.0909 2.81592C12.0909 2.99622 12.0326 3.1288 11.9159 3.21365C11.7992 3.2985 11.6508 3.31971 11.4705 3.27728C11.322 3.24546 11.1656 3.2215 11.0015 3.20537C10.8368 3.18968 10.6697 3.18183 10.5 3.18183C10.2242 3.18183 9.95379 3.20834 9.68864 3.26137C9.42348 3.3144 9.16894 3.38334 8.925 3.46819C8.73409 3.54244 8.57776 3.53713 8.456 3.45228C8.33382 3.36744 8.27273 3.22956 8.27273 3.03865ZM8.27273 6.53866C8.27273 6.4432 8.3073 6.34499 8.37645 6.24402C8.44518 6.14347 8.52197 6.07729 8.60682 6.04547C8.91439 5.93941 9.22197 5.85987 9.52955 5.80684C9.83712 5.75381 10.1606 5.72729 10.5 5.72729C10.7121 5.72729 10.9217 5.74044 11.1287 5.76675C11.3353 5.79347 11.5394 5.82805 11.7409 5.87047C11.8364 5.89169 11.9185 5.94472 11.9872 6.02957C12.0563 6.11441 12.0909 6.20987 12.0909 6.31593C12.0909 6.49623 12.0326 6.62881 11.9159 6.71366C11.7992 6.79851 11.6508 6.81972 11.4705 6.77729C11.322 6.74548 11.1656 6.72151 11.0015 6.70539C10.8368 6.68969 10.6697 6.68184 10.5 6.68184C10.2242 6.68184 9.95379 6.70581 9.68864 6.75375C9.42348 6.80126 9.16894 6.86745 8.925 6.9523C8.73409 7.02654 8.57776 7.02378 8.456 6.94402C8.33382 6.86469 8.27273 6.72957 8.27273 6.53866ZM8.27273 4.78865C8.27273 4.6932 8.3073 4.59499 8.37645 4.49401C8.44518 4.39347 8.52197 4.32729 8.60682 4.29547C8.91439 4.18941 9.22197 4.10986 9.52955 4.05683C9.83712 4.0038 10.1606 3.97729 10.5 3.97729C10.7121 3.97729 10.9217 3.99044 11.1287 4.01674C11.3353 4.04347 11.5394 4.07804 11.7409 4.12047C11.8364 4.14168 11.9185 4.19471 11.9872 4.27956C12.0563 4.36441 12.0909 4.45986 12.0909 4.56592C12.0909 4.74623 12.0326 4.8788 11.9159 4.96365C11.7992 5.0485 11.6508 5.06971 11.4705 5.02729C11.322 4.99547 11.1656 4.9715 11.0015 4.95538C10.8368 4.93968 10.6697 4.93183 10.5 4.93183C10.2242 4.93183 9.95379 4.95835 9.68864 5.01138C9.42348 5.06441 9.16894 5.13335 8.925 5.2182C8.73409 5.29244 8.57776 5.28714 8.456 5.20229C8.33382 5.11744 8.27273 4.97956 8.27273 4.78865ZM3.5 7.63639C3.99848 7.63639 4.48382 7.69196 4.956 7.80312C5.42776 7.91469 5.89697 8.08184 6.36364 8.30457V2.03637C5.92879 1.78182 5.46742 1.59091 4.97955 1.46364C4.49167 1.33637 3.99848 1.27273 3.5 1.27273C3.11818 1.27273 2.73912 1.30985 2.36282 1.3841C1.98609 1.45834 1.62273 1.5697 1.27273 1.71819V8.01821C1.64394 7.89093 2.01261 7.79548 2.37873 7.73184C2.74442 7.66821 3.11818 7.63639 3.5 7.63639ZM7.63636 8.30457C8.10303 8.08184 8.57245 7.91469 9.04464 7.80312C9.51639 7.69196 10.0015 7.63639 10.5 7.63639C10.8818 7.63639 11.2558 7.66821 11.6219 7.73184C11.9876 7.79548 12.3561 7.89093 12.7273 8.01821V1.71819C12.3773 1.5697 12.0141 1.45834 11.6378 1.3841C11.2611 1.30985 10.8818 1.27273 10.5 1.27273C10.0015 1.27273 9.50833 1.33637 9.02045 1.46364C8.53258 1.59091 8.07121 1.78182 7.63636 2.03637V8.30457ZM7 9.84776C6.85151 9.84776 6.71109 9.8293 6.57873 9.7924C6.44594 9.75506 6.32121 9.70458 6.20455 9.64094C5.79091 9.397 5.35606 9.21415 4.9 9.09239C4.44394 8.97021 3.97727 8.90912 3.5 8.90912C3.05455 8.90912 2.61715 8.96745 2.18782 9.08412C1.75806 9.20079 1.34697 9.36518 0.954545 9.5773C0.731818 9.69397 0.517152 9.68867 0.310545 9.56139C0.103515 9.43412 0 9.24852 0 9.00457V1.33637C0 1.2197 0.0292727 1.10834 0.0878182 1.00228C0.145939 0.896215 0.233333 0.816669 0.35 0.763639C0.837879 0.509092 1.34697 0.318183 1.87727 0.19091C2.40758 0.0636367 2.94848 0 3.5 0C4.11515 0 4.71715 0.0795457 5.306 0.238637C5.89442 0.397729 6.45909 0.636366 7 0.954549C7.54091 0.636366 8.10579 0.397729 8.69464 0.238637C9.28306 0.0795457 9.88485 0 10.5 0C11.0515 0 11.5924 0.0636367 12.1227 0.19091C12.653 0.318183 13.1621 0.509092 13.65 0.763639C13.7667 0.816669 13.8543 0.896215 13.9128 1.00228C13.9709 1.10834 14 1.2197 14 1.33637V9.00457C14 9.24852 13.8967 9.43412 13.6901 9.56139C13.4831 9.68867 13.2682 9.69397 13.0455 9.5773C12.653 9.36518 12.2419 9.20079 11.8122 9.08412C11.3828 8.96745 10.9455 8.90912 10.5 8.90912C10.0227 8.90912 9.55606 8.97021 9.1 9.09239C8.64394 9.21415 8.20909 9.397 7.79545 9.64094C7.67879 9.70458 7.55427 9.75506 7.42191 9.7924C7.28912 9.8293 7.14848 9.84776 7 9.84776Z" fill="white"/>
</svg>
