<svg width="12" height="7" viewBox="0 0 12 7" fill="none" xmlns="http://www.w3.org/2000/svg">
<path d="M6 4.76837e-07C6.1435 4.76837e-07 6.28233 0.0267186 6.4165 0.0801539C6.55139 0.133589 6.66368 0.204835 6.75336 0.293894L11.704 5.20992C11.9013 5.40585 12 5.65522 12 5.95802C12 6.26081 11.9013 6.51018 11.704 6.70611C11.5067 6.90204 11.2556 7 10.9507 7C10.6457 7 10.3946 6.90204 10.1973 6.70611L6 2.53817L1.80269 6.70611C1.60538 6.90204 1.35426 7 1.04933 7C0.744395 7 0.493275 6.90204 0.295965 6.70611C0.0986557 6.51018 0 6.26081 0 5.95802C0 5.65522 0.0986557 5.40585 0.295965 5.20992L5.24664 0.293894C5.35426 0.187024 5.47085 0.111502 5.59641 0.0673294C5.72197 0.0224438 5.8565 4.76837e-07 6 4.76837e-07Z" fill="white"/>
</svg>
