<svg width="9" height="8" viewBox="0 0 9 8" fill="none" xmlns="http://www.w3.org/2000/svg">
<g opacity="0.8">
<path d="M3.75385 0H4.47117C4.53494 0 4.56682 0.0296296 4.56682 0.0888889V7.91111C4.56682 7.97037 4.53494 8 4.47117 8H3.75385C3.69008 8 3.6582 7.97037 3.6582 7.91111V0.0888889C3.6582 0.0296296 3.69008 0 3.75385 0Z" fill="#888888"/>
<path d="M0.0956436 3.57776H8.12971C8.19347 3.57776 8.22535 3.60739 8.22535 3.66665V4.33331C8.22535 4.39257 8.19347 4.4222 8.12971 4.4222H0.0956436C0.0318812 4.4222 0 4.39257 0 4.33331V3.66665C0 3.60739 0.0318812 3.57776 0.0956436 3.57776Z" fill="#888888"/>
</g>
</svg>
