<svg width="12" height="7" viewBox="0 0 12 7" fill="none" xmlns="http://www.w3.org/2000/svg">
<path d="M6 7C5.8565 7 5.71767 6.97328 5.5835 6.91985C5.44861 6.86641 5.33632 6.79516 5.24664 6.70611L0.295964 1.79008C0.0986543 1.59415 0 1.34478 0 1.04198C0 0.739185 0.0986543 0.489821 0.295964 0.293893C0.493273 0.097964 0.744394 0 1.04933 0C1.35426 0 1.60538 0.097964 1.80269 0.293893L6 4.46183L10.1973 0.293893C10.3946 0.097964 10.6457 0 10.9507 0C11.2556 0 11.5067 0.097964 11.704 0.293893C11.9013 0.489821 12 0.739185 12 1.04198C12 1.34478 11.9013 1.59415 11.704 1.79008L6.75336 6.70611C6.64574 6.81298 6.52915 6.8885 6.40359 6.93267C6.27803 6.97756 6.1435 7 6 7Z" fill="white"/>
</svg>
