<svg width="9" height="8" viewBox="0 0 9 8" fill="none" xmlns="http://www.w3.org/2000/svg">
<path d="M2.88565 5.76093L7.64798 0.256559C7.79596 0.0855196 7.9843 0 8.213 0C8.4417 0 8.63004 0.0855196 8.77803 0.256559C8.92601 0.427599 9 0.645286 9 0.909621C9 1.17395 8.92601 1.39164 8.77803 1.56268L3.45067 7.72012C3.28924 7.90671 3.1009 8 2.88565 8C2.6704 8 2.48206 7.90671 2.32063 7.72012L0.221973 5.29446C0.0739907 5.12342 0 4.90573 0 4.6414C0 4.37706 0.0739907 4.15938 0.221973 3.98834C0.369955 3.8173 0.558296 3.73178 0.786995 3.73178C1.01569 3.73178 1.20404 3.8173 1.35202 3.98834L2.88565 5.76093Z" fill="white"/>
</svg>
