<svg width="10" height="10" viewBox="0 0 10 10" fill="none" xmlns="http://www.w3.org/2000/svg">
<path d="M6.4108 5.00184L9.70156 1.71107C9.79557 1.6186 9.87035 1.50844 9.92156 1.38692C9.97278 1.26541 9.99944 1.13497 9.99999 1.0031C10.0005 0.87124 9.97498 0.740572 9.92478 0.618637C9.87458 0.496702 9.80074 0.385913 9.70751 0.29266C9.61428 0.199406 9.5035 0.125535 9.38158 0.0753066C9.25966 0.0250781 9.129 -0.000513529 8.99713 7.80771e-06C8.86527 0.000529145 8.73481 0.0271532 8.61329 0.0783442C8.49177 0.129535 8.38159 0.20428 8.28909 0.298267L4.99833 3.58904L1.70756 0.2986C1.61479 0.205834 1.50466 0.132248 1.38346 0.0820439C1.26226 0.0318393 1.13235 0.00599929 1.00116 0.00599929C0.869967 0.00599929 0.740061 0.0318393 0.618856 0.0820439C0.497652 0.132248 0.387523 0.205834 0.294757 0.2986C0.107408 0.48595 0.00215587 0.74005 0.00215587 1.005C0.00215587 1.26995 0.107408 1.52405 0.294757 1.7114L3.58552 5.00184L0.286765 8.3006C0.101974 8.48847 -0.00109519 8.74175 8.77772e-06 9.00527C0.00111274 9.26878 0.1063 9.52119 0.292659 9.70751C0.479019 9.89382 0.73145 9.99895 0.994968 9.99999C1.25849 10.001 1.51174 9.8979 1.69957 9.71307L4.99799 6.41464L8.28843 9.70508C8.48355 9.9002 8.73927 9.99776 8.99466 9.99776C9.25005 9.99776 9.50578 9.9002 9.7009 9.70508C9.7937 9.61237 9.86733 9.50228 9.91756 9.38109C9.96779 9.25991 9.99364 9.13002 9.99364 8.99884C9.99364 8.86766 9.96779 8.73777 9.91756 8.61659C9.86733 8.49541 9.7937 8.38532 9.7009 8.29261L6.4108 5.00184Z" fill="white"/>
</svg>
