<svg width="18" height="12" viewBox="0 0 18 12" fill="none" xmlns="http://www.w3.org/2000/svg">
<path d="M10.5 3.58125C10.5 3.46875 10.5408 3.353 10.6222 3.234C10.7032 3.1155 10.7937 3.0375 10.8937 3C11.2562 2.875 11.6188 2.78125 11.9813 2.71875C12.3438 2.65625 12.725 2.625 13.125 2.625C13.375 2.625 13.622 2.6405 13.866 2.6715C14.1095 2.703 14.35 2.74375 14.5875 2.79375C14.7 2.81875 14.7968 2.88125 14.8778 2.98125C14.9592 3.08125 15 3.19375 15 3.31875C15 3.53125 14.9313 3.6875 14.7938 3.7875C14.6562 3.8875 14.4812 3.9125 14.2687 3.8625C14.0938 3.825 13.9095 3.79675 13.716 3.77775C13.522 3.75925 13.325 3.75 13.125 3.75C12.8 3.75 12.4812 3.78125 12.1688 3.84375C11.8563 3.90625 11.5562 3.9875 11.2687 4.0875C11.0437 4.175 10.8595 4.16875 10.716 4.06875C10.572 3.96875 10.5 3.80625 10.5 3.58125ZM10.5 7.70625C10.5 7.59375 10.5408 7.478 10.6222 7.359C10.7032 7.2405 10.7937 7.1625 10.8937 7.125C11.2562 7 11.6188 6.90625 11.9813 6.84375C12.3438 6.78125 12.725 6.75 13.125 6.75C13.375 6.75 13.622 6.7655 13.866 6.7965C14.1095 6.828 14.35 6.86875 14.5875 6.91875C14.7 6.94375 14.7968 7.00625 14.8778 7.10625C14.9592 7.20625 15 7.31875 15 7.44375C15 7.65625 14.9313 7.8125 14.7938 7.9125C14.6562 8.0125 14.4812 8.0375 14.2687 7.9875C14.0938 7.95 13.9095 7.92175 13.716 7.90275C13.522 7.88425 13.325 7.875 13.125 7.875C12.8 7.875 12.4812 7.90325 12.1688 7.95975C11.8563 8.01575 11.5562 8.09375 11.2687 8.19375C11.0437 8.28125 10.8595 8.278 10.716 8.184C10.572 8.0905 10.5 7.93125 10.5 7.70625ZM10.5 5.64375C10.5 5.53125 10.5408 5.4155 10.6222 5.2965C10.7032 5.178 10.7937 5.1 10.8937 5.0625C11.2562 4.9375 11.6188 4.84375 11.9813 4.78125C12.3438 4.71875 12.725 4.6875 13.125 4.6875C13.375 4.6875 13.622 4.703 13.866 4.734C14.1095 4.7655 14.35 4.80625 14.5875 4.85625C14.7 4.88125 14.7968 4.94375 14.8778 5.04375C14.9592 5.14375 15 5.25625 15 5.38125C15 5.59375 14.9313 5.75 14.7938 5.85C14.6562 5.95 14.4812 5.975 14.2687 5.925C14.0938 5.8875 13.9095 5.85925 13.716 5.84025C13.522 5.82175 13.325 5.8125 13.125 5.8125C12.8 5.8125 12.4812 5.84375 12.1688 5.90625C11.8563 5.96875 11.5562 6.05 11.2687 6.15C11.0437 6.2375 10.8595 6.23125 10.716 6.13125C10.572 6.03125 10.5 5.86875 10.5 5.64375ZM4.875 9C5.4625 9 6.0345 9.0655 6.591 9.1965C7.147 9.328 7.7 9.525 8.25 9.7875V2.4C7.7375 2.1 7.19375 1.875 6.61875 1.725C6.04375 1.575 5.4625 1.5 4.875 1.5C4.425 1.5 3.97825 1.54375 3.53475 1.63125C3.09075 1.71875 2.6625 1.85 2.25 2.025V9.45C2.6875 9.3 3.122 9.1875 3.5535 9.1125C3.9845 9.0375 4.425 9 4.875 9ZM9.75 9.7875C10.3 9.525 10.8533 9.328 11.4097 9.1965C11.9657 9.0655 12.5375 9 13.125 9C13.575 9 14.0157 9.0375 14.4473 9.1125C14.8783 9.1875 15.3125 9.3 15.75 9.45V2.025C15.3375 1.85 14.9095 1.71875 14.466 1.63125C14.022 1.54375 13.575 1.5 13.125 1.5C12.5375 1.5 11.9563 1.575 11.3813 1.725C10.8063 1.875 10.2625 2.1 9.75 2.4V9.7875ZM9 11.6062C8.825 11.6062 8.6595 11.5845 8.5035 11.541C8.347 11.497 8.2 11.4375 8.0625 11.3625C7.575 11.075 7.0625 10.8595 6.525 10.716C5.9875 10.572 5.4375 10.5 4.875 10.5C4.35 10.5 3.8345 10.5687 3.3285 10.7062C2.822 10.8437 2.3375 11.0375 1.875 11.2875C1.6125 11.425 1.3595 11.4187 1.116 11.2687C0.872 11.1187 0.75 10.9 0.75 10.6125V1.575C0.75 1.4375 0.7845 1.30625 0.8535 1.18125C0.922 1.05625 1.025 0.9625 1.1625 0.9C1.7375 0.6 2.3375 0.375 2.9625 0.225C3.5875 0.0750001 4.225 0 4.875 0C5.6 0 6.3095 0.09375 7.0035 0.28125C7.697 0.46875 8.3625 0.75 9 1.125C9.6375 0.75 10.3033 0.46875 10.9972 0.28125C11.6908 0.09375 12.4 0 13.125 0C13.775 0 14.4125 0.0750001 15.0375 0.225C15.6625 0.375 16.2625 0.6 16.8375 0.9C16.975 0.9625 17.0783 1.05625 17.1473 1.18125C17.2157 1.30625 17.25 1.4375 17.25 1.575V10.6125C17.25 10.9 17.1283 11.1187 16.8848 11.2687C16.6407 11.4187 16.3875 11.425 16.125 11.2875C15.6625 11.0375 15.178 10.8437 14.6715 10.7062C14.1655 10.5687 13.65 10.5 13.125 10.5C12.5625 10.5 12.0125 10.572 11.475 10.716C10.9375 10.8595 10.425 11.075 9.9375 11.3625C9.8 11.4375 9.65325 11.497 9.49725 11.541C9.34075 11.5845 9.175 11.6062 9 11.6062Z" fill="white"/>
</svg>
